<svg width="18" height="17" viewBox="0 0 18 17" fill="none" xmlns="http://www.w3.org/2000/svg">
<path d="M0.984375 17C0.4375 17 0.164062 16.707 0.164062 16.1211V1.07422C0.164062 0.488281 0.4375 0.195312 0.984375 0.195312H4.38281C4.83594 0.195312 5.16016 0.507813 5.35547 1.13281L8.53125 11.4102C8.67188 11.8555 8.76953 12.2227 8.82422 12.5117C8.87891 12.793 8.92578 13.1289 8.96484 13.5195H9.03516C9.07422 13.1289 9.12109 12.793 9.17578 12.5117C9.23047 12.2227 9.32812 11.8555 9.46875 11.4102L12.6445 1.13281C12.8398 0.507813 13.1641 0.195312 13.6172 0.195312H17.0156C17.5625 0.195312 17.8359 0.488281 17.8359 1.07422V16.1211C17.8359 16.707 17.5625 17 17.0156 17H15.2344C14.6875 17 14.4141 16.707 14.4141 16.1211V6.44141C14.4141 5.97266 14.4336 5.50391 14.4727 5.03516H14.3906L11.0039 16.0508C10.8086 16.6836 10.4727 17 9.99609 17H8.00391C7.52734 17 7.19141 16.6836 6.99609 16.0508L3.60938 5.03516H3.52734C3.56641 5.50391 3.58594 5.97266 3.58594 6.44141V16.1211C3.58594 16.707 3.3125 17 2.76562 17H0.984375Z" fill="black"/>
</svg>
